<svg xmlns="http://www.w3.org/2000/svg" viewBox="0 0 400 300" fill="none">
  <defs>
    <linearGradient id="dashGrad" x1="0%" y1="0%" x2="100%" y2="100%">
      <stop offset="0%" style="stop-color:#3B82F6;stop-opacity:1" />
      <stop offset="100%" style="stop-color:#1D4ED8;stop-opacity:1" />
    </linearGradient>
  </defs>
  
  <!-- Browser Frame -->
  <rect x="10" y="10" width="380" height="280" rx="12" fill="#F3F4F6" stroke="#E5E7EB" stroke-width="2"/>
  
  <!-- Browser Header -->
  <rect x="10" y="10" width="380" height="35" rx="12" fill="#E5E7EB"/>
  <circle cx="30" cy="27" r="6" fill="#EF4444"/>
  <circle cx="50" cy="27" r="6" fill="#F59E0B"/>
  <circle cx="70" cy="27" r="6" fill="#10B981"/>
  <rect x="100" y="20" width="200" height="14" rx="7" fill="white"/>
  
  <!-- Sidebar -->
  <rect x="20" y="55" width="80" height="225" rx="8" fill="white"/>
  <rect x="30" y="70" width="60" height="8" rx="4" fill="url(#dashGrad)"/>
  <rect x="30" y="90" width="50" height="6" rx="3" fill="#E5E7EB"/>
  <rect x="30" y="105" width="55" height="6" rx="3" fill="#E5E7EB"/>
  <rect x="30" y="120" width="45" height="6" rx="3" fill="#E5E7EB"/>
  <rect x="30" y="135" width="50" height="6" rx="3" fill="#E5E7EB"/>
  
  <!-- Main Content -->
  <rect x="110" y="55" width="270" height="225" rx="8" fill="white"/>
  
  <!-- Stats Cards -->
  <rect x="120" y="65" width="80" height="50" rx="6" fill="#DBEAFE"/>
  <rect x="130" y="75" width="30" height="20" rx="4" fill="#3B82F6"/>
  <rect x="130" y="100" width="50" height="8" rx="4" fill="#93C5FD"/>
  
  <rect x="210" y="65" width="80" height="50" rx="6" fill="#D1FAE5"/>
  <rect x="220" y="75" width="30" height="20" rx="4" fill="#10B981"/>
  <rect x="220" y="100" width="50" height="8" rx="4" fill="#6EE7B7"/>
  
  <rect x="300" y="65" width="70" height="50" rx="6" fill="#FEF3C7"/>
  <rect x="310" y="75" width="30" height="20" rx="4" fill="#F59E0B"/>
  <rect x="310" y="100" width="40" height="8" rx="4" fill="#FCD34D"/>
  
  <!-- Chart Area -->
  <rect x="120" y="125" width="170" height="100" rx="6" fill="#F9FAFB" stroke="#E5E7EB"/>
  <polyline points="140,200 160,180 180,190 200,160 220,170 240,140 260,155" stroke="#3B82F6" stroke-width="3" fill="none"/>
  <circle cx="140" cy="200" r="4" fill="#3B82F6"/>
  <circle cx="160" cy="180" r="4" fill="#3B82F6"/>
  <circle cx="180" cy="190" r="4" fill="#3B82F6"/>
  <circle cx="200" cy="160" r="4" fill="#3B82F6"/>
  <circle cx="220" cy="170" r="4" fill="#3B82F6"/>
  <circle cx="240" cy="140" r="4" fill="#3B82F6"/>
  <circle cx="260" cy="155" r="4" fill="#3B82F6"/>
  
  <!-- Activity List -->
  <rect x="300" y="125" width="70" height="100" rx="6" fill="#F9FAFB" stroke="#E5E7EB"/>
  <rect x="310" y="135" width="50" height="6" rx="3" fill="#E5E7EB"/>
  <rect x="310" y="150" width="45" height="6" rx="3" fill="#DBEAFE"/>
  <rect x="310" y="165" width="50" height="6" rx="3" fill="#D1FAE5"/>
  <rect x="310" y="180" width="40" height="6" rx="3" fill="#FEE2E2"/>
  <rect x="310" y="195" width="48" height="6" rx="3" fill="#FEF3C7"/>
  
  <!-- Table -->
  <rect x="120" y="235" width="250" height="35" rx="6" fill="#F9FAFB" stroke="#E5E7EB"/>
  <rect x="130" y="245" width="60" height="6" rx="3" fill="#93C5FD"/>
  <rect x="200" y="245" width="50" height="6" rx="3" fill="#E5E7EB"/>
  <rect x="260" y="245" width="40" height="6" rx="3" fill="#E5E7EB"/>
  <rect x="310" y="243" width="50" height="10" rx="5" fill="#10B981"/>
</svg>
